<svg xmlns="http://www.w3.org/2000/svg" viewBox="0 0 626.87 439.66"><g id="Calque_2" data-name="Calque 2"><g id="Calque_1-2" data-name="Calque 1"><path d="M194.48,264.14c1.67-6.77.17-10.32-8-9.67-8.83.71-17.46-1.89-23.65-8.13-4.51-4.53-7.91-11-5.29-18,3.51-9.44,10.64-14,20.25-13.51a52.57,52.57,0,0,1,6.56,1c8.46,1.53,8.46,1.54,10.8-4.55,74.15,19.71,147.79,20.75,222,1-.26,4.67,3.24,5.27,9.19,3.91,9.88-2.26,19.5-1.58,25.45,8.35s1.11,22.07-10.6,27c-4.37,1.85-9.08,3.13-13.76,2.53-8.5-1.08-10,2.79-9.73,10.4.6,15.76.28,31.55.27,47.34,0,24.86-12.68,41.8-37.05,47-29.37,6.28-59.3,7.16-89.24,6-19.91-.78-39.67-3.28-59.42-6.07-17.32-2.44-37.83-22-37.57-39.82.22-14.38-.24-28.76-.4-43.15ZM223,340.9a8.81,8.81,0,0,0,.78,1s.41-.23.62-.36l-1-1a59.28,59.28,0,0,1-10.05-32c-.57-17.7-1-35.41-1.75-53.1-.28-6.49-1.27-13-1.94-19.43l-3.87.24c0,26.51-.41,53,.19,79.54C206.2,327.25,211.55,336.49,223,340.9ZM194.67,236.28c-.38-1.55-.38-3.36-1.22-4.61-1.78-2.65-16.51-6.15-19.41-4.82a7.19,7.19,0,0,0-4.58,6.34c-.13,2.82,1.78,4.55,4.12,5.63,4.52,2.09,9.41,2.8,14.29,3.63C193,243.31,195.21,241.57,194.67,236.28Zm223.64.47c-.8,5.06,1.49,6.5,6.12,5.42s9.23-1.6,13.63-3c4.8-1.56,6.71-5.53,3.68-9.68-4.42-6.05-10.53-2.71-15.9-1.24C421.71,229.36,416.79,230.44,418.31,236.75Z" fill="#f89406"/><path d="M311.17.82c21.47-3.22,38.74,2.83,49.73,22.62,1.09,2,2.34,4.32,4.74,3.41,7.35-2.81,14.47-.29,21.68.29l3.36,2c15.52,11.18,20.44,23.77,15.87,40.62C402.21,85.74,390,96,372.22,97.41c-5.76.46-7,2.78-7.6,7.86a263,263,0,0,0-2,41.68c.21,6.37-.88,8.64-8.14,7.4-33.13-5.64-66.39-8.25-99.36,1-6.6,1.86-6.8-1.1-6.25-5.79,1.48-12.69.35-25.32-.72-38-.47-5.56-2.31-8.53-8.78-9.31-17.84-2.13-29.84-13.54-34.74-29.62-4.51-14.8-.27-29.45,12-40.59a15.38,15.38,0,0,0,2-3c6.15-4.35,13.21-6.6,20.34-8.66A55.33,55.33,0,0,1,261.67,22c11,3.25,13.77,1.9,20-9.43C291.2,7.86,300.22,1.92,311.17.82ZM277.73,106.16c4.47,9.82,5.72,19.86,5.66,30.05,0,4.48,1.1,7.39,6.27,6.43,4.23-.78,10.43,2.45,10.86-6,.53-10.21,1.79-20.38,2.73-30.56a163.84,163.84,0,0,1,4.16,29.26c.28,5.8,2.65,7.38,8,7.2,4.8-.17,8.85.63,9.33-6.59.71-10.8,2.79-21.52,4.29-32.28,2.06,8,1.89,16,2.1,23.9.44,17,.56,16.74,17.82,19.29,5.49.81,7-.28,7.12-5.76.17-10.19.18-20.51,1.9-30.5s1.08-17.42-9.85-20.94c-1.26-.4-3.52-1.52-2.3-4.52,6.56,2.7,13.17,5.09,20.37,5.3,14.15.41,24.58-5.45,30.7-18.2,5.12-10.67,4.4-21.15-3.32-30.41-7.5-9-21-11-35.13-6.31-6.55,2.2-12.22,6.17-19.32,10,1.62-4.42,4.17-5.76,6.3-7.5,9.94-8.12,10.11-10.57.42-19-18.69-16.19-47.21-10.38-65.25,8-2.56,2.61-1.77,4.77.66,7.06,3.7,3.49,7.88,6.62,11.42,13.43-5-3.08-8-5-11.08-6.8-11.71-6.69-24-11.55-37.79-10.9-13.05.61-24.83,10-29,22.56S214.5,80,224,88.19a32,32,0,0,0,35.76,4c-2.14-3.62-8.3-2.92-9.16-9.32,18.3,7.93,36.29,10,54.39.53a34.25,34.25,0,0,1-24.74,11.61c-8.19.2-14.77,3.9-22.05,6.19-4.57,1.45-5.31,4.1-4.73,8.4,1.3,9.81,2.27,19.65,3.18,29.5.37,4.06-.26,8.85,6.16,7.16,5.67-1.49,14.95,2.93,14.92-8.59C277.71,127.19,277.73,116.67,277.73,106.16Z" fill="#f89406"/><path d="M419.45,155.08c-8.21,5.22-16.12,11-24.71,15.47-7.35,3.85-13.82,8.74-20.36,13.64-.89.66-1.95,2.08-1.79,2.94.31,1.67,2.11,1.68,3.63,1.94,8.56,1.5,17.3,2.27,25.33,6,3.83,1.75,8.58,3.13,8.28,8.43s-4.87,7.22-9.26,8.58c-17.13,5.31-34.85,6.71-52.63,7.65-40.61,2.12-81.14,1.92-121.37-5.08a55.38,55.38,0,0,1-14.29-4.5c-3.58-1.7-6.68-4.56-6.95-8.12-.27-3.74,3.55-5.77,6.9-7.26l22.61-5.63,13.62-.14-.12-.12c0,1.11.3,1.88,1.63,1.62l-.1-.12c.82,4.94-2.52,5.39-6.13,6-9.46,1.61-19.37,1.42-28.65,6.24,3.31,3.62,7.24,3.71,10.75,4.35,51.58,9.51,103.33,8.11,155.12,2.2,6.73-.77,13.78-1.07,19.9-5.55-3.19-3.16-6.7-3.74-10.09-4.49-6.6-1.45-13.82-1.59-19.66-4.51-3.75-1.89-4.76-1.16-6.7,1.13-1.62,1.92-3.61,3.63-4.81,5.77-4.26,7.65-10.86,8.25-18.75,7.09,3.42-5.94,9-9.45,11.6-15.2l-.12.12a1.56,1.56,0,0,0,1.62-1.63l-.09.13c11.23-9.17,20.37-19.63,23.74-34.39a155.34,155.34,0,0,1,15.21-39.94c7.45-13.62,23.3-19.45,35.2-13.27s16.35,24.93,4.35,37.91l-1.17-1.1c5.95-11.3,6.45-13.55,4.59-21.37-3.58,11.34-7.32,22.41-18.66,28.45-.14-3.57,3.15-4.8,4.92-7,5.76-7.19,10.19-14.78,9.57-24.36-1.79,1.91-2.76,4.21-4.14,6.23-6,8.74-11,18.33-20.9,23.61,2.84-5.9,8.15-9.9,11.65-15.3,4.13-6.35,9.32-12.13,11.42-21.78-21.39,13.73-31.5,34.07-42.75,53.49a2.6,2.6,0,0,0-1.23,3.27l-.88.39c.13,0,.3.05.38,0a3.37,3.37,0,0,0,.42-.49l2.2-2.42c2-.09,2.37-4.37,5.34-2.17.1,3.07,1.42,2.26,3.09,1.07,5.46-3.93,11-7.77,16.46-11.65,1.37,2.3-1.53,2.7-1.88,4.24l-1.65,1.36c-1.46.59-2.82,1.28-3.41,3,2.33.88,3.39-.72,4.71-1.67.49-.38,1-.75,1.49-1.12l6.43-3.09Zm-4.21-49.57c-6-.09-10.36,3.25-14.36,7.07-8.3,7.92-11.9,18.24-14.45,29.06-.76,1-1.38,2.09-.31,3.3l1.39-2.36c4.07-5.27,5-12.41,10.13-17.06,1.27,3.38-1.51,5.54-2.62,8.14-3.22,7.6-6.74,15.06-10.14,22.58C398.09,140,407,121,425.27,108.15c-7.67-1.22-11.89,3.62-17.15,5.46-.15-5.32,5.7-4.36,7.73-7.4,1-.28,2.86.37,2.6-1.1C418.31,104.3,416.28,104.62,415.24,105.51ZM384.85,149a9.75,9.75,0,0,0,.42-1.3c0-.15-.23-.34-.36-.52-.22.27-.6.53-.6.8S384.63,148.65,384.85,149Z" fill="#f89406"/><path d="M164,137.43c-.35-4.91-1.59-9.7-1.11-14.72,2-20.68,17.17-24.24,31.7-18,18.66,8,28.86,26.83,25.55,46.95-1,6.05.48,10.08,4.46,14.08,8.3,8.32,16.44,16.79,24.65,25.19l-.08-.11,1.56,1.56-.12-.12a1.46,1.46,0,0,0,1.56,1.56l-.11-.1c1.87,5.66,8.34,8.23,10,14.26-11.87,1.15-11.85,1.13-18.73-7.17-3-3.64-5.73-7.62-10-10l.1.11c-.08-1-.52-1.56-1.56-1.55l.11.11c-1.74-3.95-4.22-7.21-8.36-8.91-1.89-4.83-6.69-7.34-9.26-11.52-1.86-3-4.07-3.78-7-3-6.63,1.83-12.65-.32-18.72-2.45-6.48-2.76-10.94-8.39-16.89-11.9Zm4.1-11.61c0,14.12,10,27.88,23.41,32.25,12.44,4,23.5-4.06,23.45-17.18-.05-13.72-10.46-27.77-23.76-32.06C178.11,104.62,168.09,112,168.08,125.82Z" fill="#f89406"/><path d="M353.82,191.24c-.29,4.39-3.36,3-6,2.48-16-3.31-32-6-48.47-6a214.05,214.05,0,0,0-37.9,3.79c-2.75.49-7.18,4-8.09-1.27-.73-4.2,4.31-4.46,7.3-5.08,20.42-4.24,41-6.46,61.78-3,8.72,1.44,17.43,3,26.12,4.65C350.93,187.26,353.69,187.53,353.82,191.24Z" fill="#f89406"/><path d="M253.38,195.53c.57-4,3.77-4.3,6.74-4.51,28-2,56.05-1.11,84.07.36,3.78.2,6.28,1.42,5.55,5.82l.11-.14c-1.39-.19-1.88.52-1.8,1.8l.13-.13c-7.15,0-14.35.39-21.46-.19-23.38-1.93-46.74-1.22-70.1.2l.12.11c.23-1.42-.59-1.79-1.79-1.79l.14.14c-.05-1.16-.49-1.92-1.8-1.8Z" fill="#f89406"/><path d="M212.15,139.26c.16,13.2-9.37,19.86-21.72,15.2-11-4.16-20.24-18.45-19.52-30.25.59-9.68,7.06-14.8,16.52-13.06C200.89,113.64,212,126.26,212.15,139.26Z" fill="#f89406"/><path d="M39.85,438.71H36v-26H3.81v26H0v-52.2H3.81v22.4H36v-22.4h3.86Z" fill="#fff"/><path d="M91.24,438.71H53.53v-52.2H90v3.81H57.35v19.31H87.9v3.81H57.35v21.45H91.24Z" fill="#fff"/><path d="M133.81,438.71H103.06v-52.2h3.82v48.38h26.93Z" fill="#fff"/><path d="M175.05,438.71H144.3v-52.2h3.81v48.38h26.94Z" fill="#fff"/><path d="M207.46,385.55a25.21,25.21,0,0,1,9.87,1.91,22.16,22.16,0,0,1,7.79,5.43,25.25,25.25,0,0,1,5.1,8.49,31.53,31.53,0,0,1,1.84,11.06,32.24,32.24,0,0,1-1.81,11.06,25.56,25.56,0,0,1-5.08,8.6,22.76,22.76,0,0,1-7.77,5.58,26,26,0,0,1-19.9,0,22.87,22.87,0,0,1-7.8-5.55,25.61,25.61,0,0,1-5.07-8.58,32.41,32.41,0,0,1-1.81-11.11,31.93,31.93,0,0,1,1.83-11.11,24.82,24.82,0,0,1,5.13-8.46,22.61,22.61,0,0,1,7.79-5.41A25.13,25.13,0,0,1,207.46,385.55Zm-.05,50.3a21.76,21.76,0,0,0,8.28-1.55,18.15,18.15,0,0,0,6.55-4.56,20.93,20.93,0,0,0,4.29-7.36,29.94,29.94,0,0,0,1.53-9.94,29.23,29.23,0,0,0-1.55-9.92,21,21,0,0,0-4.29-7.22,17.92,17.92,0,0,0-6.49-4.43,21.75,21.75,0,0,0-8.17-1.5,22.23,22.23,0,0,0-8.32,1.52,18.43,18.43,0,0,0-6.56,4.46,20.48,20.48,0,0,0-4.31,7.22,29,29,0,0,0-1.55,9.87,29.94,29.94,0,0,0,1.53,9.94,20.88,20.88,0,0,0,4.26,7.36,18,18,0,0,0,6.53,4.56A21.74,21.74,0,0,0,207.41,435.85Z" fill="#f89406"/><path d="M284.93,438.71h-4.2l-5.19-13.88a34.18,34.18,0,0,0-1.7-3.76,13.79,13.79,0,0,0-2.17-3.08,9.56,9.56,0,0,0-2.83-2.07,8.58,8.58,0,0,0-3.74-.76H246.84v23.55H243v-52.2h23.51a34,34,0,0,1,6.36.59,15.86,15.86,0,0,1,5.48,2.12,11,11,0,0,1,3.84,4.22,14.68,14.68,0,0,1,1.43,6.89,18.18,18.18,0,0,1-.64,4.89,12.49,12.49,0,0,1-2,4,11.69,11.69,0,0,1-3.34,3.05,14.79,14.79,0,0,1-4.74,1.84,18.11,18.11,0,0,1,2.43,2.19,12.67,12.67,0,0,1,1.65,2.24,18.71,18.71,0,0,1,1.24,2.62c.36,1,.78,2.05,1.26,3.29Zm-38.09-27.37H265a33.27,33.27,0,0,0,6.63-.57,11.61,11.61,0,0,0,4.55-1.88,7.84,7.84,0,0,0,2.65-3.41,13.66,13.66,0,0,0,.86-5.15q0-5.38-3.41-7.7t-10.18-2.31H246.84Z" fill="#fff"/><path d="M334.31,438.71h-37.7v-52.2H333v3.81H300.42v19.31H331v3.81H300.42v21.45h33.89Z" fill="#fff"/><path d="M383.89,400.47a12.2,12.2,0,0,0-1.95-4.36,14.83,14.83,0,0,0-3.58-3.53,17.44,17.44,0,0,0-4.93-2.35,20,20,0,0,0-6-.86,22,22,0,0,0-8.22,1.47,16.67,16.67,0,0,0-6.29,4.37,19.75,19.75,0,0,0-4,7.2,32.61,32.61,0,0,0-1.4,10,33.13,33.13,0,0,0,1.4,10.08,20.47,20.47,0,0,0,4,7.32,16.89,16.89,0,0,0,6.24,4.48,20.81,20.81,0,0,0,8.13,1.53,19.23,19.23,0,0,0,11.16-3,13.07,13.07,0,0,0,5.43-8.84h4a18.09,18.09,0,0,1-2.34,6.65,17.31,17.31,0,0,1-4.43,4.93,19.67,19.67,0,0,1-6.15,3.05,26,26,0,0,1-7.53,1.05,24.48,24.48,0,0,1-9.94-1.93,21.16,21.16,0,0,1-7.51-5.46,24.29,24.29,0,0,1-4.77-8.56,35.73,35.73,0,0,1-1.67-11.27,35,35,0,0,1,1.67-11.16,24.15,24.15,0,0,1,4.79-8.46,21.05,21.05,0,0,1,7.53-5.38,24.9,24.9,0,0,1,9.9-1.89,23.28,23.28,0,0,1,7.17,1.1,21.75,21.75,0,0,1,6.13,3.07,19.14,19.14,0,0,1,4.57,4.72,17.22,17.22,0,0,1,2.58,6Z" fill="#fff"/><path d="M437.23,438.71h-37.7v-52.2H436v3.81H403.34v19.31H433.9v3.81H403.34v21.45h33.89Z" fill="#fff"/><path d="M484.81,390.32H466.55v48.39h-3.81V390.32H444.67v-3.81h40.14Z" fill="#fff"/><path d="M530.1,390.32H511.84v48.39H508V390.32H490v-3.81H530.1Z" fill="#fff"/><path d="M577.24,438.71h-37.7v-52.2H576v3.81H543.35v19.31h30.56v3.81H543.35v21.45h33.89Z" fill="#fff"/><path d="M608.09,439.66a34.4,34.4,0,0,1-9.25-1.12,19.51,19.51,0,0,1-6.65-3.19,14.18,14.18,0,0,1-4.13-5,17.35,17.35,0,0,1-1.66-6.6h3.76a14.53,14.53,0,0,0,2.15,5.86,12.17,12.17,0,0,0,3.88,3.72,16.16,16.16,0,0,0,5.27,1.95,32.39,32.39,0,0,0,6.29.58,24.63,24.63,0,0,0,6.27-.74,14.73,14.73,0,0,0,4.77-2.15,9.73,9.73,0,0,0,3-3.38,9.49,9.49,0,0,0,1-4.46,9.73,9.73,0,0,0-.9-4.41,8.09,8.09,0,0,0-3.05-3.12,23.76,23.76,0,0,0-5.65-2.39c-2.34-.69-5.24-1.41-8.7-2.14a48.69,48.69,0,0,1-7.37-2.19,19.24,19.24,0,0,1-5.07-2.89,10.34,10.34,0,0,1-3-3.76,11.9,11.9,0,0,1-.95-4.94,12.24,12.24,0,0,1,1.28-5.58,12.8,12.8,0,0,1,3.65-4.33,17.51,17.51,0,0,1,5.67-2.82,25.5,25.5,0,0,1,7.32-1,27.26,27.26,0,0,1,7.34.93,18.68,18.68,0,0,1,5.84,2.7,14.22,14.22,0,0,1,6,10h-3.67a12.76,12.76,0,0,0-1.71-3.91,11.42,11.42,0,0,0-3.08-3.12,14.79,14.79,0,0,0-4.48-2.05,21.45,21.45,0,0,0-5.94-.74q-7,0-10.6,2.57a8.22,8.22,0,0,0-3.6,7.06,8.78,8.78,0,0,0,.67,3.57,7,7,0,0,0,2.26,2.74,15.63,15.63,0,0,0,4.22,2.15,50.6,50.6,0,0,0,6.53,1.74l4.72,1c1.62.35,3.2.76,4.74,1.24a28.35,28.35,0,0,1,4.41,1.76,14.11,14.11,0,0,1,3.65,2.58,11.57,11.57,0,0,1,2.48,3.64,12.48,12.48,0,0,1,.93,5,13.38,13.38,0,0,1-1.41,6.13,14.59,14.59,0,0,1-3.91,4.81,18.4,18.4,0,0,1-6,3.15A24.36,24.36,0,0,1,608.09,439.66Z" fill="#fff"/></g></g></svg>