<svg xmlns="http://www.w3.org/2000/svg" viewBox="0 0 81.88 68.98"><defs><style>.cls-1{fill:#f39200;stroke:#f39200;stroke-width:0.93px;}.cls-1,.cls-3{stroke-miterlimit:10;}.cls-2,.cls-3{fill:#432918;}.cls-3{stroke:#1d1d1b;}.cls-4{fill:#ffa400;}.cls-5{fill:#c6c6c6;}.cls-6{font-size:9px;fill:#fff;font-family:Verdana;}</style></defs><g id="Calque_2" data-name="Calque 2"><g id="Calque_1-2" data-name="Calque 1"><path class="cls-1" d="M33.38,35c18.19,0,32.92-3.28,32.92-7.34s-14.73-7.34-32.92-7.34S.46,23.63.46,27.68l.67,1.48C4.19,32.5,17.46,35,33.38,35Z"/><path class="cls-2" d="M33.38,35.59c18.19,0,32.92-2.94,32.92-6.58s-14.73-6.59-32.92-6.59S.46,25.37.46,29l.67,1.32C4.19,33.33,17.46,35.59,33.38,35.59Z"/><ellipse class="cls-3" cx="34.18" cy="63.27" rx="17.43" ry="3.52"/><path class="cls-4" d="M0,28.23c34.49,11.57,66.9,0,66.9,0L51.17,66.33c-21.87,6-34.86,0-34.86,0Z"/><path class="cls-5" d="M47.43,29.05c.33,1.62,3.9,1.42,3.9,1.42,15.19-23.59,24-25.2,24-25.2,4.6.31,5.89-.77,5.89-.77A2.26,2.26,0,0,0,81.71,2C80.82.26,78.43.13,78.43.13a6.6,6.6,0,0,0-5.2,1.21C69,4.8,63.37,10.28,63.37,10.28,59,13.42,47.43,29.05,47.43,29.05Z"/><text class="cls-6" transform="translate(22.08 46.13) rotate(3.74)">H</text><text class="cls-6" transform="translate(29.09 46.54) rotate(0.27)">e</text><text class="cls-6" transform="translate(34.57 46.54) rotate(-1.4)">l</text><text class="cls-6" transform="translate(37.09 46.48) rotate(-2.35)">l</text><text class="cls-6" transform="matrix(1, -0.07, 0.07, 1, 39.69, 46.4)">o</text><text class="cls-6" transform="translate(14.04 54.54) rotate(13.52)">R</text><text class="cls-6" transform="translate(20.46 55.98) rotate(5.88)">e</text><text class="cls-6" transform="matrix(1, 0.04, -0.04, 1, 26.06, 56.53)">c</text><text class="cls-6" transform="translate(30.92 56.71) rotate(-0.32)">e</text><text class="cls-6" transform="matrix(1, -0.04, 0.04, 1, 36.42, 56.67)">t</text><text class="cls-6" transform="translate(40.07 56.53) rotate(-3.49)">t</text><text class="cls-6" transform="matrix(0.95, -0.3, 0.3, 0.95, 44.62, 56.31)">e</text><text class="cls-6" transform="translate(49.82 54.65) rotate(-19.62)">s</text></g></g></svg>